# xmcd
#
# Track frame offsets: 
#        150
#        28435
#        50885
#        57560
#        75595
#        81140
#        88797
#        97602
#        110937
#        123997
#        159747
#        184665
#        197910
#        207907
#        215172
#        245907
#
# Disc length: 3708 seconds
#
# Revision: 0
# Processed by: cddbd v1.5.2PL0 Copyright (c) Steve Scherf et al.
# Submitted via: ExactAudioCopy v0.99pb5
#
DISCID=f30e7a10
DTITLE=Dick Koomans - De verhuizing van een orgel
DYEAR=1900
DGENRE=Classical
TTITLE0=Lübeck - Praeludium in E
TTITLE1=Böhm - Vater unser
TTITLE2=Bach - Marche in D
TTITLE3=Bach - Menuetten in G en g
TTITLE4=Bach - Polonaise in g
TTITLE5=Bach - Marche in G
TTITLE6=Geyer - Andante in F
TTITLE7=Van Oortmerssen - Psalm 77
TTITLE8=Van Oortmerssen - Psalm 72
TTITLE9=Bach - Preludium en Fuga in g
TTITLE10=Blekkenhorst - Praise my soul
TTITLE11=Buxtehude - Herr Christ der einig Gottes Sohn
TTITLE12=Bach - Herr Christ der einig Gottes Sohn - BWW Anh. 55
TTITLE13=Bach - Herr Christ der einig Gottes Sohn - BWW 601
TTITLE14=Walther - Meinem Jesum lass ich nicht
TTITLE15=Koomans - Basso Ostinato
EXTD=
EXTT0=
EXTT1=
EXTT2=
EXTT3=
EXTT4=
EXTT5=
EXTT6=
EXTT7=
EXTT8=
EXTT9=
EXTT10=
EXTT11=
EXTT12=
EXTT13=
EXTT14=
EXTT15=
PLAYORDER=
